<svg width="172" height="172" viewBox="0 0 172 172" fill="none" xmlns="http://www.w3.org/2000/svg">
<path d="M81.7311 47.8315L84.1778 47.6376C86.1025 47.6734 87.9293 48.0175 89.6582 48.6697C92.9382 49.9053 95.5437 51.9935 97.4746 54.9347C97.5736 55.0751 97.6622 55.2165 97.7402 55.3588C98.7368 57.0402 99.4234 58.825 99.8 60.7132C99.9486 61.3618 100.044 62.229 100.086 63.3148C100.075 63.4226 100.073 63.5083 100.079 63.5719C100.05 66.3308 99.4314 68.8557 98.2248 71.1465C96.5466 74.2928 94.0729 76.6152 90.8035 78.1137C89.9651 78.4902 89.0982 78.7947 88.2029 79.0269C87.4326 79.2262 86.5925 79.3679 85.6828 79.452C84.773 79.536 83.9205 79.5507 83.1253 79.4958C79.365 79.2449 76.1001 77.8371 73.3307 75.2725C71.946 73.9902 70.8315 72.5228 69.9869 70.8701C69.2814 69.5465 68.7759 68.0868 68.4707 66.4911C68.3221 65.8425 68.2267 64.9753 68.1847 63.8895C68.1955 63.7817 68.1978 63.696 68.1917 63.6324C68.2211 60.8735 68.8382 58.338 70.0428 56.026C71.7018 52.9028 74.1554 50.593 77.4036 49.0964C78.6296 48.5346 79.8932 48.1401 81.1947 47.9131C81.3407 47.8782 81.5195 47.851 81.7311 47.8315ZM84.1837 50.6497L82.1812 50.8026C81.9696 50.8221 81.7908 50.8493 81.6448 50.8842C79.8631 51.2196 78.2222 51.9053 76.7222 52.9412C76.1418 53.3367 75.6767 53.7109 75.3269 54.0637L75.1519 54.2401L79.5413 57.8729L83.9275 61.474L87.5386 57.1343L91.1465 52.7629L90.9405 52.6216C90.5984 52.3968 90.0798 52.1136 89.3846 51.7718C87.6919 51.0521 85.9583 50.678 84.1837 50.6497ZM78.4328 68.1671L82.009 63.7985L77.6197 60.1657L73.2621 56.5299L73.0392 56.8709C72.7632 57.3238 72.521 57.7949 72.3125 58.2842C71.6151 59.8869 71.238 61.5991 71.1809 63.4205C71.1811 64.2965 71.27 65.207 71.4476 66.152C71.9837 68.581 73.0503 70.6512 74.6477 72.3626L74.8249 72.5385L78.4328 68.1671ZM94.0186 55.286C93.8771 55.1495 93.7453 55.0013 93.623 54.8417L93.4456 54.6658L89.8377 59.0372L86.2615 63.4058L90.6192 67.0416L95.0086 70.6744L95.1486 70.4692C96.3863 68.496 97.0333 66.2675 97.0897 63.7838C97.0895 62.9078 97.0007 61.9973 96.8229 61.0522C96.3288 58.833 95.394 56.9109 94.0186 55.286ZM88.7324 69.3631L84.3431 65.7303L80.7352 70.1018L77.1242 74.4414L77.4663 74.6662C79.2596 75.7612 81.198 76.3727 83.2812 76.5008C83.9263 76.5481 84.6296 76.5366 85.3912 76.4662C86.1528 76.3959 86.8564 76.2775 87.5019 76.111C88.8988 75.7684 90.2582 75.1513 91.5801 74.2601C92.1966 73.7972 92.6513 73.4241 92.9438 73.1406L93.1187 72.9642L88.7324 69.3631ZM104.372 45.7725C104.742 45.6315 105.106 45.6405 105.463 45.7998C105.751 45.9016 105.971 46.0841 106.125 46.3477C106.252 46.5497 106.358 47.0954 106.445 47.9848C106.553 48.8721 106.847 51.7722 107.326 56.6849C107.973 63.3129 108.316 66.7104 108.354 66.8779C108.684 68.7277 109.593 70.2783 111.081 71.5296C112.591 72.779 114.311 73.4534 116.242 73.5528C117.101 73.6017 117.947 73.5235 118.781 73.3183C120.658 72.8672 122.217 71.8899 123.458 70.3866C124.678 68.885 125.271 67.1957 125.237 65.3187C125.241 65.1473 124.92 61.7477 124.273 55.1198C123.626 48.4918 123.335 45.0787 123.401 44.8803C123.387 44.9457 123.404 44.9015 123.452 44.7473C123.465 44.6607 123.539 44.5365 123.672 44.3745C124.13 43.8194 124.704 43.681 125.393 43.9593C125.68 44.0609 125.901 44.2435 126.055 44.507C126.181 44.709 126.289 45.2653 126.378 46.1759C126.486 47.0633 126.782 49.9845 127.265 54.9395C127.921 61.6522 128.246 65.0941 128.241 65.2654L128.198 66.1349C128.027 68.971 126.876 71.3956 124.746 73.4085C123.438 74.6617 121.902 75.5513 120.139 76.0774C119.411 76.2728 118.634 76.4087 117.809 76.4849C116.984 76.5611 116.206 76.5688 115.474 76.5082C113.683 76.3104 112.06 75.7552 110.604 74.8427C107.904 73.2118 106.205 70.8903 105.505 67.8781C105.468 67.7106 105.43 67.5432 105.392 67.3758C105.354 67.2083 105.008 63.7683 104.353 57.0557C103.699 50.3643 103.406 46.9193 103.472 46.7209C103.455 46.7652 103.472 46.7209 103.523 46.588C103.655 46.1912 103.938 45.9195 104.372 45.7725ZM115.296 54.3464L115.673 54.2795L115.705 54.2766C115.961 54.2743 116.145 54.3 116.257 54.3538C116.745 54.5438 117.053 54.8572 117.181 55.294C117.232 55.3748 117.303 55.8811 117.394 56.8127L117.524 58.1468L118.952 58.0149L120.412 57.8801L120.646 57.9866C121.31 58.2244 121.654 58.6841 121.677 59.3656C121.676 60.0068 121.391 60.4711 120.821 60.7588L120.637 60.8399L119.212 61.0036L117.815 61.1325L117.955 62.5619C118.044 63.4725 118.064 64.0048 118.015 64.1589C117.844 64.8156 117.41 65.1762 116.711 65.2407C116.013 65.3052 115.517 65.0305 115.222 64.4168C115.144 64.2744 115.061 63.7479 114.972 62.8374L114.832 61.408L113.436 61.537L112.036 61.6343L111.808 61.5912C111.193 61.413 110.823 61.0092 110.697 60.3797C110.589 59.706 110.837 59.1917 111.443 58.8366L111.685 58.6861L113.113 58.5542L114.541 58.4223L114.411 57.0883C114.309 56.0507 114.311 55.4095 114.415 55.1648C114.61 54.7623 114.904 54.4894 115.296 54.3464Z" fill="#F2F2F2"/>
<path d="M82.5697 69.7862L84.3796 72.1057C86.0851 74.7535 87.2082 77.5383 87.7487 80.4599C88.2459 83.089 88.2682 85.7012 87.8159 88.2962C87.3307 91.3261 86.2079 94.1689 84.4476 96.8245C82.0275 100.523 78.7783 103.234 74.6997 104.956C74.3978 105.087 74.0891 105.211 73.7739 105.325C71.5304 106.186 69.1937 106.657 66.7636 106.739C62.5676 106.919 58.6027 105.962 54.8693 103.866C52.9227 102.719 51.1752 101.344 49.6266 99.7432C48.9088 98.9795 48.1776 98.0628 47.4329 96.9935C47.393 96.9436 47.3532 96.8936 47.3133 96.8436C45.6077 94.1957 44.478 91.4027 43.9241 88.4644C43.427 85.8352 43.4046 83.2232 43.857 80.6281C44.3588 77.5849 45.4899 74.7356 47.2502 72.0799C49.6537 68.3942 52.903 65.6837 56.998 63.9485C57.3 63.8171 57.6086 63.6939 57.9239 63.579C60.9074 62.4564 63.9313 61.9967 66.9957 62.1996C68.6192 62.2966 70.0768 62.5255 71.3686 62.8866C74.4901 63.6711 77.3066 65.0934 79.8184 67.1537C80.7785 67.9151 81.6957 68.7927 82.5697 69.7862ZM72.771 76.7316L79.4141 71.4409L79.3143 71.3159C79.2745 71.266 79.1582 71.1543 78.9654 70.9807C76.5431 68.6584 73.7447 67.0718 70.57 66.2208C66.5387 65.1799 62.5917 65.4346 58.7288 66.985C58.3173 67.1492 57.9125 67.3217 57.5143 67.5026C56.5718 67.9535 55.9098 68.3308 55.5283 68.6346L55.4537 68.694L60.7784 75.3682L66.103 82.0422L72.771 76.7316ZM82.1513 75.025C81.892 74.6319 81.7507 74.4038 81.7275 74.3405L81.5679 74.1406L74.9248 79.4313L68.2569 84.7419L73.5815 91.416L78.9062 98.0902L78.9808 98.0307C79.2131 97.8457 79.5547 97.4918 80.0057 96.9692C81.1631 95.6658 82.1461 94.1607 82.9545 92.4541C84.6442 88.7918 85.1186 84.9664 84.3779 80.9779C83.9742 78.8738 83.2321 76.8895 82.1513 75.025ZM56.7481 89.4929L63.416 84.1823L58.0914 77.5082L52.7666 70.8342L52.692 70.8935C52.4597 71.0785 52.1182 71.4324 51.6671 71.9551C50.4932 73.2717 49.5185 74.77 48.7433 76.4503C47.037 80.1258 46.5542 83.9578 47.295 87.9464C47.6987 90.0504 48.4408 92.0347 49.5215 93.8993C49.7942 94.309 49.9354 94.5372 49.9455 94.5837L50.105 94.7836L56.7481 89.4929ZM76.1445 100.29L76.2191 100.23L70.8944 93.5561L65.5698 86.882L58.9018 92.1925L52.2588 97.4833L52.4184 97.6832C53.4651 98.7572 54.6911 99.7158 56.0961 100.559C59.6836 102.744 63.5571 103.638 67.7165 103.241C69.9638 103.032 72.1113 102.425 74.1587 101.422C75.101 100.971 75.763 100.593 76.1445 100.29ZM109.355 100.81L111.494 103.44C111.733 103.739 111.851 103.904 111.848 103.934C111.865 104.057 111.714 104.259 111.395 104.54C111.213 104.685 110.815 105.002 110.201 105.491C106.197 108.598 102.272 111.397 98.4267 113.887C84.2263 123.017 70.6107 127.456 57.5801 127.206C57.3377 127.208 57.0971 127.195 56.8579 127.168C56.7118 127.12 56.4592 126.804 56.1002 126.218C56.0602 126.032 56.1248 125.926 56.2941 125.9C56.3107 125.887 56.6858 125.847 57.4194 125.78C61.1905 125.475 64.933 124.811 68.6469 123.788C78.1923 121.2 88.4675 115.974 99.472 108.109C100.096 107.666 100.721 107.209 101.348 106.737C103.468 105.212 105.731 103.492 108.136 101.576C108.832 101.022 109.239 100.766 109.355 100.81Z" fill="#F2F2F2"/>
</svg>
